<mxfile host="app.diagrams.net" modified="2024-01-07T20:33:25.694Z" agent="Mozilla/5.0 (Windows NT 10.0; Win64; x64) AppleWebKit/537.36 (KHTML, like Gecko) Chrome/120.0.0.0 Safari/537.36" etag="o4l3NFRVM1SdfSlyxi__" version="22.1.17" type="device">
  <diagram id="C5RBs43oDa-KdzZeNtuy" name="Page-1">
    <mxGraphModel dx="1050" dy="530" grid="1" gridSize="10" guides="1" tooltips="1" connect="1" arrows="1" fold="1" page="1" pageScale="1" pageWidth="827" pageHeight="1169" math="0" shadow="0">
      <root>
        <mxCell id="WIyWlLk6GJQsqaUBKTNV-0" />
        <mxCell id="WIyWlLk6GJQsqaUBKTNV-1" parent="WIyWlLk6GJQsqaUBKTNV-0" />
        <mxCell id="0Z_J8r0Nk97fVDzsVdwM-20" value="" style="rounded=1;whiteSpace=wrap;html=1;fillColor=#dae8fc;strokeColor=#6c8ebf;" vertex="1" parent="WIyWlLk6GJQsqaUBKTNV-1">
          <mxGeometry x="47" y="10" width="663" height="430" as="geometry" />
        </mxCell>
        <mxCell id="0Z_J8r0Nk97fVDzsVdwM-41" value="" style="edgeStyle=orthogonalEdgeStyle;rounded=0;orthogonalLoop=1;jettySize=auto;html=1;" edge="1" parent="WIyWlLk6GJQsqaUBKTNV-1" source="0Z_J8r0Nk97fVDzsVdwM-34" target="0Z_J8r0Nk97fVDzsVdwM-37">
          <mxGeometry relative="1" as="geometry" />
        </mxCell>
        <mxCell id="0Z_J8r0Nk97fVDzsVdwM-42" value="Yes" style="edgeLabel;html=1;align=center;verticalAlign=middle;resizable=0;points=[];labelBackgroundColor=none;" vertex="1" connectable="0" parent="0Z_J8r0Nk97fVDzsVdwM-41">
          <mxGeometry x="-0.168" y="4" relative="1" as="geometry">
            <mxPoint x="6" as="offset" />
          </mxGeometry>
        </mxCell>
        <mxCell id="0Z_J8r0Nk97fVDzsVdwM-47" value="" style="edgeStyle=orthogonalEdgeStyle;rounded=0;orthogonalLoop=1;jettySize=auto;html=1;entryX=0;entryY=0.5;entryDx=0;entryDy=0;" edge="1" parent="WIyWlLk6GJQsqaUBKTNV-1" source="0Z_J8r0Nk97fVDzsVdwM-34" target="0Z_J8r0Nk97fVDzsVdwM-51">
          <mxGeometry relative="1" as="geometry">
            <Array as="points">
              <mxPoint x="310" y="140" />
              <mxPoint x="310" y="140" />
            </Array>
          </mxGeometry>
        </mxCell>
        <mxCell id="0Z_J8r0Nk97fVDzsVdwM-48" value="No" style="edgeLabel;html=1;align=center;verticalAlign=middle;resizable=0;points=[];labelBackgroundColor=none;" vertex="1" connectable="0" parent="0Z_J8r0Nk97fVDzsVdwM-47">
          <mxGeometry x="-0.3067" relative="1" as="geometry">
            <mxPoint x="-63" y="-10" as="offset" />
          </mxGeometry>
        </mxCell>
        <mxCell id="0Z_J8r0Nk97fVDzsVdwM-34" value="Is cold start &lt;br&gt;flag set?" style="rhombus;whiteSpace=wrap;html=1;shadow=0;fontFamily=Helvetica;fontSize=12;align=center;strokeWidth=1;spacing=6;spacingTop=-4;" vertex="1" parent="WIyWlLk6GJQsqaUBKTNV-1">
          <mxGeometry x="140" y="100" width="100" height="80" as="geometry" />
        </mxCell>
        <mxCell id="0Z_J8r0Nk97fVDzsVdwM-36" value="Write to &lt;br&gt;LCD queue" style="strokeWidth=2;html=1;shape=mxgraph.flowchart.multi-document;whiteSpace=wrap;" vertex="1" parent="WIyWlLk6GJQsqaUBKTNV-1">
          <mxGeometry x="543" y="320" width="94" height="60" as="geometry" />
        </mxCell>
        <mxCell id="0Z_J8r0Nk97fVDzsVdwM-44" value="" style="edgeStyle=orthogonalEdgeStyle;rounded=0;orthogonalLoop=1;jettySize=auto;html=1;" edge="1" parent="WIyWlLk6GJQsqaUBKTNV-1" source="0Z_J8r0Nk97fVDzsVdwM-37" target="0Z_J8r0Nk97fVDzsVdwM-43">
          <mxGeometry relative="1" as="geometry" />
        </mxCell>
        <mxCell id="0Z_J8r0Nk97fVDzsVdwM-37" value="Wait for &lt;br&gt;timer initialisation message" style="rounded=1;whiteSpace=wrap;html=1;fontSize=12;glass=0;strokeWidth=1;shadow=0;" vertex="1" parent="WIyWlLk6GJQsqaUBKTNV-1">
          <mxGeometry x="130" y="230" width="120" height="50" as="geometry" />
        </mxCell>
        <mxCell id="0Z_J8r0Nk97fVDzsVdwM-38" value="Buffer Task" style="shape=partialRectangle;whiteSpace=wrap;html=1;left=0;right=0;fillColor=default;" vertex="1" parent="WIyWlLk6GJQsqaUBKTNV-1">
          <mxGeometry x="380" y="40" width="120" height="40" as="geometry" />
        </mxCell>
        <mxCell id="0Z_J8r0Nk97fVDzsVdwM-45" style="edgeStyle=orthogonalEdgeStyle;rounded=0;orthogonalLoop=1;jettySize=auto;html=1;entryX=0;entryY=0.5;entryDx=0;entryDy=0;" edge="1" parent="WIyWlLk6GJQsqaUBKTNV-1" source="0Z_J8r0Nk97fVDzsVdwM-43" target="0Z_J8r0Nk97fVDzsVdwM-34">
          <mxGeometry relative="1" as="geometry">
            <Array as="points">
              <mxPoint x="190" y="400" />
              <mxPoint x="110" y="400" />
              <mxPoint x="110" y="140" />
            </Array>
          </mxGeometry>
        </mxCell>
        <mxCell id="0Z_J8r0Nk97fVDzsVdwM-43" value="Retreive message and setup the RTC" style="rounded=1;whiteSpace=wrap;html=1;fontSize=12;glass=0;strokeWidth=1;shadow=0;" vertex="1" parent="WIyWlLk6GJQsqaUBKTNV-1">
          <mxGeometry x="130" y="330" width="120" height="40" as="geometry" />
        </mxCell>
        <mxCell id="0Z_J8r0Nk97fVDzsVdwM-50" style="edgeStyle=orthogonalEdgeStyle;rounded=0;orthogonalLoop=1;jettySize=auto;html=1;entryX=0.5;entryY=0;entryDx=0;entryDy=0;" edge="1" parent="WIyWlLk6GJQsqaUBKTNV-1" source="0Z_J8r0Nk97fVDzsVdwM-46" target="0Z_J8r0Nk97fVDzsVdwM-49">
          <mxGeometry relative="1" as="geometry" />
        </mxCell>
        <mxCell id="0Z_J8r0Nk97fVDzsVdwM-46" value="Wait for UART message" style="rounded=1;whiteSpace=wrap;html=1;fontSize=12;glass=0;strokeWidth=1;shadow=0;" vertex="1" parent="WIyWlLk6GJQsqaUBKTNV-1">
          <mxGeometry x="330" y="170" width="120" height="50" as="geometry" />
        </mxCell>
        <mxCell id="0Z_J8r0Nk97fVDzsVdwM-55" style="edgeStyle=orthogonalEdgeStyle;rounded=0;orthogonalLoop=1;jettySize=auto;html=1;entryX=0;entryY=0.5;entryDx=0;entryDy=0;" edge="1" parent="WIyWlLk6GJQsqaUBKTNV-1" source="0Z_J8r0Nk97fVDzsVdwM-49" target="0Z_J8r0Nk97fVDzsVdwM-53">
          <mxGeometry relative="1" as="geometry" />
        </mxCell>
        <mxCell id="0Z_J8r0Nk97fVDzsVdwM-49" value="Write the UART message to the circular buffer" style="shape=datastore;whiteSpace=wrap;html=1;" vertex="1" parent="WIyWlLk6GJQsqaUBKTNV-1">
          <mxGeometry x="325" y="270" width="130" height="80" as="geometry" />
        </mxCell>
        <mxCell id="0Z_J8r0Nk97fVDzsVdwM-56" value="" style="edgeStyle=orthogonalEdgeStyle;rounded=0;orthogonalLoop=1;jettySize=auto;html=1;" edge="1" parent="WIyWlLk6GJQsqaUBKTNV-1" source="0Z_J8r0Nk97fVDzsVdwM-51" target="0Z_J8r0Nk97fVDzsVdwM-53">
          <mxGeometry relative="1" as="geometry" />
        </mxCell>
        <mxCell id="0Z_J8r0Nk97fVDzsVdwM-51" value="Wait for MENU message" style="rounded=1;whiteSpace=wrap;html=1;fontSize=12;glass=0;strokeWidth=1;shadow=0;" vertex="1" parent="WIyWlLk6GJQsqaUBKTNV-1">
          <mxGeometry x="530" y="115" width="120" height="50" as="geometry" />
        </mxCell>
        <mxCell id="0Z_J8r0Nk97fVDzsVdwM-52" value="" style="endArrow=classic;html=1;rounded=0;entryX=0;entryY=0.5;entryDx=0;entryDy=0;" edge="1" parent="WIyWlLk6GJQsqaUBKTNV-1" target="0Z_J8r0Nk97fVDzsVdwM-46">
          <mxGeometry width="50" height="50" relative="1" as="geometry">
            <mxPoint x="290" y="140" as="sourcePoint" />
            <mxPoint x="440" y="250" as="targetPoint" />
            <Array as="points">
              <mxPoint x="290" y="195" />
            </Array>
          </mxGeometry>
        </mxCell>
        <mxCell id="0Z_J8r0Nk97fVDzsVdwM-54" style="edgeStyle=orthogonalEdgeStyle;rounded=0;orthogonalLoop=1;jettySize=auto;html=1;entryX=1;entryY=0.5;entryDx=0;entryDy=0;" edge="1" parent="WIyWlLk6GJQsqaUBKTNV-1" source="0Z_J8r0Nk97fVDzsVdwM-53" target="0Z_J8r0Nk97fVDzsVdwM-49">
          <mxGeometry relative="1" as="geometry" />
        </mxCell>
        <mxCell id="0Z_J8r0Nk97fVDzsVdwM-57" value="" style="edgeStyle=orthogonalEdgeStyle;rounded=0;orthogonalLoop=1;jettySize=auto;html=1;" edge="1" parent="WIyWlLk6GJQsqaUBKTNV-1" source="0Z_J8r0Nk97fVDzsVdwM-53" target="0Z_J8r0Nk97fVDzsVdwM-36">
          <mxGeometry relative="1" as="geometry" />
        </mxCell>
        <mxCell id="0Z_J8r0Nk97fVDzsVdwM-53" value="Retreive message from the buffer" style="rounded=1;whiteSpace=wrap;html=1;fontSize=12;glass=0;strokeWidth=1;shadow=0;" vertex="1" parent="WIyWlLk6GJQsqaUBKTNV-1">
          <mxGeometry x="530" y="210" width="120" height="50" as="geometry" />
        </mxCell>
      </root>
    </mxGraphModel>
  </diagram>
</mxfile>
